<svg xmlns="http://www.w3.org/2000/svg" xmlns:xlink="http://www.w3.org/1999/xlink" width="291" zoomAndPan="magnify" viewBox="0 0 218.25 98.999996" height="132" preserveAspectRatio="xMidYMid meet" version="1.2"><defs/><g id="2a01bd28bc"><g style="fill:#000000;fill-opacity:1;"><g transform="translate(2.747794, 47.268723)"><path style="stroke:none" d="M 12.203125 0 L 3.71875 0 L 3.71875 -36.390625 L 29.375 -36.390625 L 29.375 -28.84375 L 12.203125 -28.84375 L 12.203125 -20.5 L 26.9375 -20.5 L 26.9375 -13.40625 L 12.203125 -13.40625 Z M 12.203125 0 "/></g></g><g style="fill:#000000;fill-opacity:1;"><g transform="translate(39.129016, 47.268723)"><path style="stroke:none" d="M 29.625 0 L 3.71875 0 L 3.71875 -36.390625 L 29.375 -36.390625 L 29.375 -28.875 L 12.203125 -28.875 L 12.203125 -22 L 26.9375 -22 L 26.9375 -14.9375 L 12.203125 -14.9375 L 12.203125 -7.546875 L 29.625 -7.546875 Z M 29.625 0 "/></g></g><g style="fill:#000000;fill-opacity:1;"><g transform="translate(75.804532, 47.268723)"><path style="stroke:none" d="M 12.203125 0 L 3.71875 0 L 3.71875 -36.390625 L 19.6875 -36.390625 C 21.613281 -36.390625 23.375 -36.09375 24.96875 -35.5 C 26.570312 -34.914062 27.960938 -34.078125 29.140625 -32.984375 C 30.316406 -31.898438 31.222656 -30.609375 31.859375 -29.109375 C 32.503906 -27.609375 32.828125 -25.953125 32.828125 -24.140625 C 32.828125 -22.492188 32.539062 -20.972656 31.96875 -19.578125 C 31.40625 -18.191406 30.609375 -16.984375 29.578125 -15.953125 C 28.554688 -14.929688 27.335938 -14.117188 25.921875 -13.515625 L 33.6875 0 L 23.96875 0 L 17.609375 -12.171875 L 12.203125 -12.171875 Z M 12.203125 -28.84375 L 12.203125 -19.265625 L 19.34375 -19.265625 C 20.289062 -19.265625 21.140625 -19.472656 21.890625 -19.890625 C 22.640625 -20.304688 23.234375 -20.878906 23.671875 -21.609375 C 24.117188 -22.347656 24.34375 -23.191406 24.34375 -24.140625 C 24.34375 -24.992188 24.117188 -25.773438 23.671875 -26.484375 C 23.234375 -27.203125 22.632812 -27.773438 21.875 -28.203125 C 21.113281 -28.628906 20.269531 -28.84375 19.34375 -28.84375 Z M 12.203125 -28.84375 "/></g></g><g style="fill:#000000;fill-opacity:1;"><g transform="translate(115.637083, 47.268723)"><path style="stroke:none" d="M 12.203125 0 L 3.71875 0 L 3.71875 -36.390625 L 19.6875 -36.390625 C 21.613281 -36.390625 23.375 -36.09375 24.96875 -35.5 C 26.570312 -34.914062 27.960938 -34.078125 29.140625 -32.984375 C 30.316406 -31.898438 31.222656 -30.609375 31.859375 -29.109375 C 32.503906 -27.609375 32.828125 -25.953125 32.828125 -24.140625 C 32.828125 -22.492188 32.539062 -20.972656 31.96875 -19.578125 C 31.40625 -18.191406 30.609375 -16.984375 29.578125 -15.953125 C 28.554688 -14.929688 27.335938 -14.117188 25.921875 -13.515625 L 33.6875 0 L 23.96875 0 L 17.609375 -12.171875 L 12.203125 -12.171875 Z M 12.203125 -28.84375 L 12.203125 -19.265625 L 19.34375 -19.265625 C 20.289062 -19.265625 21.140625 -19.472656 21.890625 -19.890625 C 22.640625 -20.304688 23.234375 -20.878906 23.671875 -21.609375 C 24.117188 -22.347656 24.34375 -23.191406 24.34375 -24.140625 C 24.34375 -24.992188 24.117188 -25.773438 23.671875 -26.484375 C 23.234375 -27.203125 22.632812 -27.773438 21.875 -28.203125 C 21.113281 -28.628906 20.269531 -28.84375 19.34375 -28.84375 Z M 12.203125 -28.84375 "/></g></g><g style="fill:#000000;fill-opacity:1;"><g transform="translate(155.469618, 47.268723)"><path style="stroke:none" d="M 12.203125 0 L 3.71875 0 L 3.71875 -36.390625 L 12.203125 -36.390625 Z M 12.203125 0 "/></g></g><g style="fill:#000000;fill-opacity:1;"><g transform="translate(176.89512, 47.268723)"><path style="stroke:none" d="M 10.296875 0 L 0.328125 0 L 13.625 -19.109375 L 1.625 -36.390625 L 11.578125 -36.390625 L 18.921875 -25.015625 L 26.25 -36.390625 L 36.203125 -36.390625 L 24.21875 -19.109375 L 37.546875 0 L 27.5625 0 L 18.921875 -13.265625 Z M 10.296875 0 "/></g></g><g style="fill:#000000;fill-opacity:1;"><g transform="translate(6.429512, 84.778183)"><path style="stroke:none" d="M 14.734375 0 L 12.40625 0 L 0.515625 -27.71875 L 3.0625 -27.71875 L 13.546875 -3.078125 L 13.609375 -3.140625 L 24.0625 -27.71875 L 26.640625 -27.71875 Z M 14.734375 0 "/></g></g><g style="fill:#000000;fill-opacity:1;"><g transform="translate(33.57291, 84.778183)"><path style="stroke:none" d="M 22.296875 0 L 4.15625 0 L 4.15625 -27.71875 L 22.109375 -27.71875 L 22.109375 -25.46875 L 6.5625 -25.46875 L 6.5625 -15.15625 L 20.140625 -15.15625 L 20.140625 -13.0625 L 6.5625 -13.0625 L 6.5625 -2.21875 L 22.296875 -2.21875 Z M 22.296875 0 "/></g></g><g style="fill:#000000;fill-opacity:1;"><g transform="translate(57.45584, 84.778183)"><path style="stroke:none" d="M 6.5625 0 L 4.15625 0 L 4.15625 -27.71875 L 6.09375 -27.71875 L 24.796875 -4.09375 L 24.828125 -4.078125 L 24.828125 -27.71875 L 27.21875 -27.71875 L 27.21875 0 L 25.234375 0 L 6.578125 -23.53125 L 6.5625 -23.53125 Z M 6.5625 0 "/></g></g><g style="fill:#000000;fill-opacity:1;"><g transform="translate(88.837847, 84.778183)"><path style="stroke:none" d="M 12.71875 0 L 10.3125 0 L 10.3125 -25.515625 L 1.09375 -25.515625 L 1.09375 -27.71875 L 21.953125 -27.71875 L 21.953125 -25.515625 L 12.71875 -25.515625 Z M 12.71875 0 "/></g></g><g style="fill:#000000;fill-opacity:1;"><g transform="translate(111.885286, 84.778183)"><path style="stroke:none" d="M 14.78125 0.53125 C 13.195312 0.53125 11.722656 0.265625 10.359375 -0.265625 C 9.003906 -0.796875 7.820312 -1.554688 6.8125 -2.546875 C 5.800781 -3.535156 5.007812 -4.722656 4.4375 -6.109375 C 3.875 -7.492188 3.59375 -9.046875 3.59375 -10.765625 L 3.59375 -27.734375 L 5.96875 -27.734375 L 5.96875 -10.9375 C 5.96875 -9.6875 6.160156 -8.507812 6.546875 -7.40625 C 6.929688 -6.300781 7.5 -5.320312 8.25 -4.46875 C 9.007812 -3.625 9.9375 -2.957031 11.03125 -2.46875 C 12.125 -1.988281 13.375 -1.75 14.78125 -1.75 C 16.144531 -1.75 17.367188 -1.984375 18.453125 -2.453125 C 19.535156 -2.929688 20.457031 -3.585938 21.21875 -4.421875 C 21.976562 -5.265625 22.554688 -6.234375 22.953125 -7.328125 C 23.359375 -8.429688 23.5625 -9.609375 23.5625 -10.859375 L 23.5625 -27.734375 L 25.96875 -27.734375 L 25.96875 -10.765625 C 25.96875 -9.078125 25.6875 -7.539062 25.125 -6.15625 C 24.570312 -4.78125 23.785156 -3.59375 22.765625 -2.59375 C 21.753906 -1.59375 20.566406 -0.820312 19.203125 -0.28125 C 17.847656 0.257812 16.375 0.53125 14.78125 0.53125 Z M 14.78125 0.53125 "/></g></g><g style="fill:#000000;fill-opacity:1;"><g transform="translate(141.433272, 84.778183)"><path style="stroke:none" d="M 6.5625 0 L 4.15625 0 L 4.15625 -27.71875 L 15.765625 -27.71875 C 17.054688 -27.71875 18.242188 -27.515625 19.328125 -27.109375 C 20.410156 -26.710938 21.347656 -26.144531 22.140625 -25.40625 C 22.929688 -24.664062 23.546875 -23.773438 23.984375 -22.734375 C 24.421875 -21.703125 24.640625 -20.550781 24.640625 -19.28125 C 24.640625 -17.875 24.367188 -16.617188 23.828125 -15.515625 C 23.296875 -14.410156 22.546875 -13.492188 21.578125 -12.765625 C 20.617188 -12.035156 19.5 -11.535156 18.21875 -11.265625 L 25.234375 0 L 22.421875 0 L 15.734375 -10.921875 C 15.609375 -10.910156 15.484375 -10.90625 15.359375 -10.90625 C 15.242188 -10.90625 15.117188 -10.90625 14.984375 -10.90625 L 6.5625 -10.90625 Z M 6.5625 -25.515625 L 6.5625 -13 L 15.765625 -13 C 17.003906 -13.007812 18.109375 -13.273438 19.078125 -13.796875 C 20.054688 -14.316406 20.828125 -15.039062 21.390625 -15.96875 C 21.953125 -16.90625 22.234375 -18 22.234375 -19.25 C 22.234375 -20.476562 21.945312 -21.5625 21.375 -22.5 C 20.800781 -23.445312 20.019531 -24.1875 19.03125 -24.71875 C 18.050781 -25.25 16.9375 -25.515625 15.6875 -25.515625 Z M 6.5625 -25.515625 "/></g></g><g style="fill:#000000;fill-opacity:1;"><g transform="translate(168.230249, 84.778183)"><path style="stroke:none" d="M 22.296875 0 L 4.15625 0 L 4.15625 -27.71875 L 22.109375 -27.71875 L 22.109375 -25.46875 L 6.5625 -25.46875 L 6.5625 -15.15625 L 20.140625 -15.15625 L 20.140625 -13.0625 L 6.5625 -13.0625 L 6.5625 -2.21875 L 22.296875 -2.21875 Z M 22.296875 0 "/></g></g><g style="fill:#000000;fill-opacity:1;"><g transform="translate(192.113179, 84.778183)"><path style="stroke:none" d="M 12.1875 0.546875 C 10.414062 0.546875 8.867188 0.304688 7.546875 -0.171875 C 6.222656 -0.648438 5.125 -1.289062 4.25 -2.09375 C 3.375 -2.894531 2.71875 -3.789062 2.28125 -4.78125 C 1.84375 -5.78125 1.625 -6.789062 1.625 -7.8125 L 4.0625 -7.8125 C 4.0625 -7.019531 4.242188 -6.25 4.609375 -5.5 C 4.972656 -4.75 5.503906 -4.078125 6.203125 -3.484375 C 6.898438 -2.898438 7.75 -2.429688 8.75 -2.078125 C 9.757812 -1.734375 10.90625 -1.5625 12.1875 -1.5625 C 14.78125 -1.5625 16.8125 -2.0625 18.28125 -3.0625 C 19.75 -4.070312 20.484375 -5.570312 20.484375 -7.5625 C 20.484375 -8.519531 20.273438 -9.328125 19.859375 -9.984375 C 19.441406 -10.648438 18.863281 -11.195312 18.125 -11.625 C 17.394531 -12.0625 16.550781 -12.410156 15.59375 -12.671875 C 14.632812 -12.929688 13.613281 -13.128906 12.53125 -13.265625 C 11.601562 -13.390625 10.660156 -13.554688 9.703125 -13.765625 C 8.753906 -13.972656 7.835938 -14.253906 6.953125 -14.609375 C 6.078125 -14.960938 5.289062 -15.410156 4.59375 -15.953125 C 3.90625 -16.492188 3.359375 -17.160156 2.953125 -17.953125 C 2.554688 -18.742188 2.359375 -19.679688 2.359375 -20.765625 C 2.359375 -21.734375 2.523438 -22.664062 2.859375 -23.5625 C 3.203125 -24.457031 3.753906 -25.257812 4.515625 -25.96875 C 5.285156 -26.6875 6.296875 -27.253906 7.546875 -27.671875 C 8.796875 -28.097656 10.320312 -28.3125 12.125 -28.3125 C 14.1875 -28.3125 15.929688 -27.984375 17.359375 -27.328125 C 18.785156 -26.671875 19.867188 -25.773438 20.609375 -24.640625 C 21.347656 -23.515625 21.71875 -22.222656 21.71875 -20.765625 L 19.3125 -20.765625 C 19.3125 -21.847656 19.023438 -22.789062 18.453125 -23.59375 C 17.878906 -24.394531 17.050781 -25.015625 15.96875 -25.453125 C 14.882812 -25.898438 13.597656 -26.125 12.109375 -26.125 C 10.691406 -26.125 9.507812 -25.972656 8.5625 -25.671875 C 7.625 -25.378906 6.875 -24.976562 6.3125 -24.46875 C 5.757812 -23.957031 5.363281 -23.378906 5.125 -22.734375 C 4.882812 -22.097656 4.765625 -21.441406 4.765625 -20.765625 C 4.765625 -19.640625 5.101562 -18.710938 5.78125 -17.984375 C 6.46875 -17.265625 7.441406 -16.695312 8.703125 -16.28125 C 9.960938 -15.875 11.460938 -15.566406 13.203125 -15.359375 C 14.046875 -15.253906 14.914062 -15.097656 15.8125 -14.890625 C 16.71875 -14.691406 17.59375 -14.410156 18.4375 -14.046875 C 19.28125 -13.691406 20.035156 -13.226562 20.703125 -12.65625 C 21.378906 -12.09375 21.914062 -11.394531 22.3125 -10.5625 C 22.71875 -9.726562 22.921875 -8.726562 22.921875 -7.5625 C 22.921875 -5.882812 22.5 -4.4375 21.65625 -3.21875 C 20.820312 -2.007812 19.601562 -1.078125 18 -0.421875 C 16.394531 0.222656 14.457031 0.546875 12.1875 0.546875 Z M 12.1875 0.546875 "/></g></g></g></svg>